<svg id="visual" viewBox="0 0 900 100" width="900" height="100" xmlns="http://www.w3.org/2000/svg" xmlns:xlink="http://www.w3.org/1999/xlink" version="1.1"><rect x="0" y="0" width="900" height="100" fill="#bec5ad"></rect><path d="M0 74L21.5 66C43 58 86 42 128.8 43C171.7 44 214.3 62 257.2 68.8C300 75.7 343 71.3 385.8 61C428.7 50.7 471.3 34.3 514.2 30.8C557 27.3 600 36.7 642.8 41C685.7 45.3 728.3 44.7 771.2 42.8C814 41 857 38 878.5 36.5L900 35L900 0L878.5 0C857 0 814 0 771.2 0C728.3 0 685.7 0 642.8 0C600 0 557 0 514.2 0C471.3 0 428.7 0 385.8 0C343 0 300 0 257.2 0C214.3 0 171.7 0 128.8 0C86 0 43 0 21.5 0L0 0Z" fill="#454545" stroke-linecap="round" stroke-linejoin="miter"></path></svg>