<svg id="visual" viewBox="0 0 900 100" width="900" height="100" xmlns="http://www.w3.org/2000/svg" xmlns:xlink="http://www.w3.org/1999/xlink" version="1.1"><rect x="0" y="0" width="900" height="100" fill="#bec5ad"></rect><path d="M0 73L25 68.3C50 63.7 100 54.3 150 49.5C200 44.7 250 44.3 300 48.2C350 52 400 60 450 63.2C500 66.3 550 64.7 600 66.2C650 67.7 700 72.3 750 64.2C800 56 850 35 875 24.5L900 14L900 101L875 101C850 101 800 101 750 101C700 101 650 101 600 101C550 101 500 101 450 101C400 101 350 101 300 101C250 101 200 101 150 101C100 101 50 101 25 101L0 101Z" fill="#454545" stroke-linecap="round" stroke-linejoin="miter"></path></svg>