<svg xmlns="http://www.w3.org/2000/svg" xmlns:xlink="http://www.w3.org/1999/xlink" width="500" zoomAndPan="magnify" viewBox="0 0 375 374.999991" height="500" preserveAspectRatio="xMidYMid meet" version="1.0"><defs><g/><clipPath id="80e9ea6298"><path d="M 119.308594 140 L 188 140 L 188 200 L 119.308594 200 Z M 119.308594 140 " clip-rule="nonzero"/></clipPath><clipPath id="6ee0624e29"><path d="M 187 108.519531 L 255.808594 108.519531 L 255.808594 169 L 187 169 Z M 187 108.519531 " clip-rule="nonzero"/></clipPath></defs><g clip-path="url(#80e9ea6298)"><path fill="#38b6ff" d="M 165.269531 182.492188 L 165.269531 190.777344 L 127.644531 173.351562 L 127.644531 166.628906 L 165.269531 149.203125 L 165.269531 157.488281 L 136.816406 169.910156 L 136.816406 170.066406 Z M 187.617188 140 L 124.691406 140 C 121.722656 140 119.3125 142.402344 119.3125 145.363281 L 119.3125 194.617188 C 119.3125 197.578125 121.722656 199.980469 124.691406 199.980469 L 170.148438 199.980469 L 187.617188 140 " fill-opacity="1" fill-rule="nonzero"/></g><g clip-path="url(#6ee0624e29)"><path fill="#004aad" d="M 247.488281 142.132812 L 209.863281 159.324219 L 209.863281 151.039062 L 238.945312 138.613281 L 238.945312 138.457031 L 209.863281 126.035156 L 209.863281 117.75 L 247.488281 134.941406 Z M 205.085938 108.546875 L 187.617188 168.527344 L 250.4375 168.527344 C 253.410156 168.527344 255.816406 166.125 255.816406 163.164062 L 255.816406 113.910156 C 255.816406 110.949219 253.410156 108.546875 250.4375 108.546875 L 205.085938 108.546875 " fill-opacity="1" fill-rule="nonzero"/></g><g fill="#ffffff" fill-opacity="1"><g transform="translate(125.167529, 236.784858)"><g><path d="M 15.011719 -21 L -0.175781 -21 L -0.175781 -16.902344 L 5.144531 -16.902344 L 5.144531 0 L 9.730469 0 L 9.730469 -16.902344 L 15.011719 -16.902344 Z M 15.011719 -21 "/></g></g></g><g fill="#ffffff" fill-opacity="1"><g transform="translate(141.237481, 236.784858)"><g><path d="M 13.019531 -8.644531 C 15.503906 -9.378906 17.253906 -11.6875 17.253906 -14.558594 C 17.253906 -18.128906 14.59375 -21 10.988281 -21 L 2.066406 -21 L 2.066406 0 L 6.683594 0 L 6.683594 -8.121094 L 8.539062 -8.121094 L 13.71875 0 L 18.898438 0 Z M 10.289062 -11.933594 L 6.683594 -11.933594 L 6.683594 -16.902344 L 10.289062 -16.902344 C 11.757812 -16.902344 12.84375 -15.855469 12.84375 -14.417969 C 12.84375 -12.949219 11.757812 -11.933594 10.289062 -11.933594 Z M 10.289062 -11.933594 "/></g></g></g><g fill="#ffffff" fill-opacity="1"><g transform="translate(161.191889, 236.784858)"><g><path d="M 2.238281 0 L 6.859375 0 L 6.859375 -21 L 2.238281 -21 Z M 2.238281 0 "/></g></g></g><g fill="#ffffff" fill-opacity="1"><g transform="translate(171.487642, 236.784858)"><g><path d="M 8.539062 0.28125 C 12.457031 0.28125 15.785156 -2.03125 15.785156 -5.949219 C 15.785156 -13.71875 6.125 -11.792969 6.125 -15.433594 C 6.125 -16.625 7.035156 -17.183594 8.152344 -17.183594 C 9.34375 -17.183594 10.535156 -16.519531 11.582031 -15.363281 L 14.664062 -18.304688 C 13.125 -20.089844 10.777344 -21.277344 8.1875 -21.277344 C 4.863281 -21.277344 1.46875 -19.285156 1.46875 -15.082031 C 1.46875 -7.945312 11.164062 -9.660156 11.164062 -5.984375 C 11.164062 -4.828125 10.183594 -4.058594 8.574219 -4.058594 C 6.648438 -4.058594 5.144531 -5.144531 4.375 -6.789062 L 0.558594 -4.410156 C 1.925781 -1.785156 4.863281 0.28125 8.539062 0.28125 Z M 8.539062 0.28125 "/></g></g></g><g fill="#ffffff" fill-opacity="1"><g transform="translate(189.307351, 236.784858)"><g><path d="M 15.011719 -21 L -0.175781 -21 L -0.175781 -16.902344 L 5.144531 -16.902344 L 5.144531 0 L 9.730469 0 L 9.730469 -16.902344 L 15.011719 -16.902344 Z M 15.011719 -21 "/></g></g></g><g fill="#ffffff" fill-opacity="1"><g transform="translate(205.377304, 236.784858)"><g><path d="M 14.910156 0 L 19.84375 0 L 12.285156 -21 L 7.105469 -21 L -0.453125 0 L 4.480469 0 L 5.773438 -3.953125 L 13.613281 -3.953125 Z M 7 -7.804688 L 9.695312 -16.132812 L 12.390625 -7.804688 Z M 7 -7.804688 "/></g></g></g><g fill="#ffffff" fill-opacity="1"><g transform="translate(225.99662, 236.784858)"><g><path d="M 17.148438 -21 L 17.148438 -7.105469 L 6.824219 -21 L 2.066406 -21 L 2.066406 0 L 6.683594 0 L 6.683594 -13.929688 L 16.972656 0 L 21.734375 0 L 21.734375 -21 Z M 17.148438 -21 "/></g></g></g><g fill="#ffffff" fill-opacity="1"><g transform="translate(122.4356, 263.17888)"><g><path d="M 6.523438 -9 L 3.796875 -1.230469 L 1.066406 -9 L 0 -9 L 3.253906 0 L 4.320312 0 L 7.574219 -9 Z M 6.523438 -9 "/></g></g></g><g fill="#ffffff" fill-opacity="1"><g transform="translate(134.030667, 263.17888)"><g><path d="M 5.355469 0.121094 C 7.921875 0.121094 9.976562 -1.949219 9.976562 -4.5 C 9.976562 -7.050781 7.921875 -9.121094 5.355469 -9.121094 C 2.804688 -9.121094 0.734375 -7.050781 0.734375 -4.5 C 0.734375 -1.949219 2.804688 0.121094 5.355469 0.121094 Z M 5.355469 -0.839844 C 3.328125 -0.839844 1.695312 -2.460938 1.695312 -4.5 C 1.695312 -6.539062 3.328125 -8.160156 5.355469 -8.160156 C 7.394531 -8.160156 9.015625 -6.539062 9.015625 -4.5 C 9.015625 -2.460938 7.394531 -0.839844 5.355469 -0.839844 Z M 5.355469 -0.839844 "/></g></g></g><g fill="#ffffff" fill-opacity="1"><g transform="translate(148.775732, 263.17888)"><g><path d="M 2.054688 -0.960938 L 2.054688 -9 L 1.09375 -9 L 1.09375 0 L 5.398438 0 L 5.398438 -0.960938 Z M 2.054688 -0.960938 "/></g></g></g><g fill="#ffffff" fill-opacity="1"><g transform="translate(158.330798, 263.17888)"><g><path d="M 2.054688 -0.960938 L 2.054688 -9 L 1.09375 -9 L 1.09375 0 L 5.398438 0 L 5.398438 -0.960938 Z M 2.054688 -0.960938 "/></g></g></g><g fill="#ffffff" fill-opacity="1"><g transform="translate(167.885865, 263.17888)"><g><path d="M 6.089844 -8.070312 L 6.089844 -9 L 1.171875 -9 L 1.171875 0 L 6.089844 0 L 6.089844 -0.929688 L 2.128906 -0.929688 L 2.128906 -4.035156 L 5.578125 -4.035156 L 5.578125 -4.964844 L 2.128906 -4.964844 L 2.128906 -8.070312 Z M 6.089844 -8.070312 "/></g></g></g><g fill="#ffffff" fill-opacity="1"><g transform="translate(178.895933, 263.17888)"><g><path d="M 7.558594 -9 L 7.558594 -1.605469 L 1.996094 -9 L 1.09375 -9 L 1.09375 0 L 2.054688 0 L 2.054688 -7.394531 L 7.605469 0 L 8.503906 0 L 8.503906 -9 Z M 7.558594 -9 "/></g></g></g><g fill="#ffffff" fill-opacity="1"><g transform="translate(192.515998, 263.17888)"><g><path d="M 7.019531 -9 L 7.019531 -4.980469 L 2.054688 -4.980469 L 2.054688 -9 L 1.09375 -9 L 1.09375 0 L 2.054688 0 L 2.054688 -4.019531 L 7.019531 -4.019531 L 7.019531 0 L 7.980469 0 L 7.980469 -9 Z M 7.019531 -9 "/></g></g></g><g fill="#ffffff" fill-opacity="1"><g transform="translate(205.611065, 263.17888)"><g><path d="M 5.355469 0.121094 C 7.921875 0.121094 9.976562 -1.949219 9.976562 -4.5 C 9.976562 -7.050781 7.921875 -9.121094 5.355469 -9.121094 C 2.804688 -9.121094 0.734375 -7.050781 0.734375 -4.5 C 0.734375 -1.949219 2.804688 0.121094 5.355469 0.121094 Z M 5.355469 -0.839844 C 3.328125 -0.839844 1.695312 -2.460938 1.695312 -4.5 C 1.695312 -6.539062 3.328125 -8.160156 5.355469 -8.160156 C 7.394531 -8.160156 9.015625 -6.539062 9.015625 -4.5 C 9.015625 -2.460938 7.394531 -0.839844 5.355469 -0.839844 Z M 5.355469 -0.839844 "/></g></g></g><g fill="#ffffff" fill-opacity="1"><g transform="translate(220.356131, 263.17888)"><g><path d="M 6.523438 -9 L 3.796875 -1.230469 L 1.066406 -9 L 0 -9 L 3.253906 0 L 4.320312 0 L 7.574219 -9 Z M 6.523438 -9 "/></g></g></g><g fill="#ffffff" fill-opacity="1"><g transform="translate(231.951203, 263.17888)"><g><path d="M 6.089844 -8.070312 L 6.089844 -9 L 1.171875 -9 L 1.171875 0 L 6.089844 0 L 6.089844 -0.929688 L 2.128906 -0.929688 L 2.128906 -4.035156 L 5.578125 -4.035156 L 5.578125 -4.964844 L 2.128906 -4.964844 L 2.128906 -8.070312 Z M 6.089844 -8.070312 "/></g></g></g><g fill="#ffffff" fill-opacity="1"><g transform="translate(242.961266, 263.17888)"><g><path d="M 7.558594 -9 L 7.558594 -1.605469 L 1.996094 -9 L 1.09375 -9 L 1.09375 0 L 2.054688 0 L 2.054688 -7.394531 L 7.605469 0 L 8.503906 0 L 8.503906 -9 Z M 7.558594 -9 "/></g></g></g></svg>